<svg xmlns="http://www.w3.org/2000/svg" style="display: none;">
    <!-- Python Icon -->
    <symbol id="icon-python" viewBox="0 0 24 24">
        <path fill="#3776AB" d="M11.93,0C5.89,0,6.32,2.67,6.32,2.67l0,2.77h5.7v0.8H4c0,0-3.9-0.44-3.9,5.7s3.39,5.91,3.39,5.91h2.02v-2.84 c0,0-0.11-3.39,3.31-3.39h5.7c0,0,3.19,0.05,3.19-3.09V3.66C17.71,3.66,18.09,0,11.93,0z M8.82,1.88c0.57,0,1.03,0.46,1.03,1.03 s-0.46,1.03-1.03,1.03c-0.57,0-1.03-0.46-1.03-1.03S8.25,1.88,8.82,1.88z"/>
        <path fill="#3776AB" d="M12.07,24c6.04,0,5.61-2.67,5.61-2.67l0-2.77h-5.7v-0.8H20c0,0,3.9,0.44,3.9-5.7s-3.39-5.91-3.39-5.91h-2.02v2.84 c0,0,0.11,3.39-3.31,3.39h-5.7c0,0-3.19-0.05-3.19,3.09v5.17C6.29,20.34,5.91,24,12.07,24z M15.18,22.12c-0.57,0-1.03-0.46-1.03-1.03 s0.46-1.03,1.03-1.03c0.57,0,1.03,0.46,1.03,1.03S15.75,22.12,15.18,22.12z"/>
    </symbol>

    <!-- TensorFlow Icon -->
    <symbol id="icon-tensorflow" viewBox="0 0 24 24">
        <path fill="#FF6F00" d="M19.6,12l-2.2,1.3v2.5l2.2-1.2V12z M14.9,16.4l-2.2,1.2v-2.5l2.2-1.3V16.4z M19.6,8.6l-2.2,1.2v2.5l2.2-1.2 V8.6z M14.9,12.9l-2.2,1.2v2.5l2.2-1.2V12.9z M12.4,11.6L10.2,13v2.5l2.2-1.2V11.6z M19.6,5.1l-2.2,1.2v2.5l2.2-1.2V5.1z M14.9,9.4 l-2.2,1.2v2.5l2.2-1.2V9.4z M10.2,13.7L8,14.9v2.5l2.2-1.2V13.7z M12.4,8.1l-2.2,1.2v2.5l2.2-1.2V8.1z M8,11.2l-2.2,1.2v2.5L8,13.7 V11.2z M12.4,4.6l-2.2,1.2v2.5l2.2-1.2V4.6z M8,7.7L5.8,8.9v2.5L8,10.2V7.7z M5.8,12.5l-2.2,1.2v2.5l2.2-1.2V12.5z"/>
    </symbol>

    <!-- AWS Icon -->
    <symbol id="icon-aws" viewBox="0 0 24 24">
        <path fill="#FF9900" d="M12,2C6.5,2,2,6.5,2,12s4.5,10,10,10s10-4.5,10-10S17.5,2,12,2z M16.9,15.7c-0.1,0.1-0.2,0.2-0.3,0.2 c-0.1,0-0.3,0.1-0.5,0.1s-0.3,0-0.5-0.1c-0.1,0-0.2-0.1-0.3-0.2c-0.1-0.1-0.1-0.2-0.2-0.3c0-0.1-0.1-0.3-0.1-0.5 c0-0.2,0-0.3,0.1-0.5c0-0.1,0.1-0.2,0.2-0.3c0.1-0.1,0.2-0.1,0.3-0.2c0.1,0,0.3-0.1,0.5-0.1s0.3,0,0.5,0.1c0.1,0,0.2,0.1,0.3,0.2 c0.1,0.1,0.1,0.2,0.2,0.3c0,0.1,0.1,0.3,0.1,0.5c0,0.2,0,0.3-0.1,0.5C17.1,15.5,17,15.6,16.9,15.7z M7.1,15.7 C7,15.8,6.9,15.9,6.8,15.9c-0.1,0-0.3,0.1-0.5,0.1s-0.3,0-0.5-0.1c-0.1,0-0.2-0.1-0.3-0.2c-0.1-0.1-0.1-0.2-0.2-0.3 c0-0.1-0.1-0.3-0.1-0.5c0-0.2,0-0.3,0.1-0.5c0-0.1,0.1-0.2,0.2-0.3C5.6,14,5.7,13.9,5.8,13.9c0.1,0,0.3-0.1,0.5-0.1s0.3,0,0.5,0.1 c0.1,0,0.2,0.1,0.3,0.2c0.1,0.1,0.1,0.2,0.2,0.3c0,0.1,0.1,0.3,0.1,0.5c0,0.2,0,0.3-0.1,0.5C7.3,15.5,7.2,15.6,7.1,15.7z"/>
    </symbol>

    <!-- React Icon -->
    <symbol id="icon-react" viewBox="0 0 24 24">
        <path fill="#61DAFB" d="M12,9.9c-1.2,0-2.1,0.9-2.1,2.1s0.9,2.1,2.1,2.1s2.1-0.9,2.1-2.1S13.2,9.9,12,9.9z"/>
        <path fill="#61DAFB" d="M12,5.1c-5.3,0-9.6,2.4-9.6,5.4s4.3,5.4,9.6,5.4s9.6-2.4,9.6-5.4S17.3,5.1,12,5.1z M12,14.5 c-2.2,0-4-1.8-4-4s1.8-4,4-4s4,1.8,4,4S14.2,14.5,12,14.5z"/>
    </symbol>

    <!-- NextJS Icon -->
    <symbol id="icon-nextjs" viewBox="0 0 24 24">
        <path fill="#000000" d="M12,2C6.5,2,2,6.5,2,12s4.5,10,10,10s10-4.5,10-10S17.5,2,12,2z M12,20c-4.4,0-8-3.6-8-8s3.6-8,8-8 s8,3.6,8,8S16.4,20,12,20z"/>
        <path fill="#000000" d="M15.7,14.9l-2.5-3.5l2.5-3.5h-2l-1.7,2.4l-1.7-2.4h-2l2.5,3.5l-2.5,3.5h2l1.7-2.4l1.7,2.4H15.7z"/>
    </symbol>

    <!-- PyTorch Icon -->
    <symbol id="icon-pytorch" viewBox="0 0 24 24">
        <path fill="#EE4C2C" d="M12,2C6.5,2,2,6.5,2,12s4.5,10,10,10s10-4.5,10-10S17.5,2,12,2z M12,20c-4.4,0-8-3.6-8-8s3.6-8,8-8 s8,3.6,8,8S16.4,20,12,20z"/>
        <path fill="#EE4C2C" d="M15.1,9.6c0,0.6-0.4,1-1,1s-1-0.4-1-1s0.4-1,1-1S15.1,9,15.1,9.6z"/>
        <path fill="#EE4C2C" d="M9.7,8.4c-1.3,0-2.4,1.1-2.4,2.4s1.1,2.4,2.4,2.4s2.4-1.1,2.4-2.4S11,8.4,9.7,8.4z M9.7,12.2 c-0.7,0-1.4-0.6-1.4-1.4s0.6-1.4,1.4-1.4S11.1,10,11.1,10.8S10.5,12.2,9.7,12.2z"/>
    </symbol>

    <!-- Docker Icon -->
    <symbol id="icon-docker" viewBox="0 0 24 24">
        <path fill="#2496ED" d="M13.983 11.078h2.119a.186.186 0 00.186-.185V9.006a.186.186 0 00-.186-.186h-2.119a.185.185 0 00-.185.185v1.888c0 .102.083.185.185.185m-2.954-5.43h2.118a.186.186 0 00.186-.186V3.574a.186.186 0 00-.186-.185h-2.118a.185.185 0 00-.185.185v1.888c0 .102.082.185.185.185m0 2.716h2.118a.187.187 0 00.186-.186V6.29a.186.186 0 00-.186-.185h-2.118a.185.185 0 00-.185.185v1.887c0 .102.082.185.185.186m-2.93 0h2.12a.186.186 0 00.184-.186V6.29a.185.185 0 00-.185-.185H8.1a.185.185 0 00-.185.185v1.887c0 .102.083.185.185.186m-2.964 0h2.119a.186.186 0 00.185-.186V6.29a.185.185 0 00-.185-.185H5.136a.186.186 0 00-.186.185v1.887c0 .102.084.185.186.186m5.893 2.715h2.118a.186.186 0 00.186-.185V9.006a.186.186 0 00-.186-.186h-2.118a.185.185 0 00-.185.185v1.888c0 .102.082.185.185.185m-2.93 0h2.12a.185.185 0 00.184-.185V9.006a.185.185 0 00-.184-.186h-2.12a.185.185 0 00-.184.185v1.888c0 .102.083.185.185.185m-2.964 0h2.119a.185.185 0 00.185-.185V9.006a.185.185 0 00-.185-.186h-2.12a.186.186 0 00-.185.185v1.888c0 .102.084.185.186.185m-2.92 0h2.12a.185.185 0 00.184-.185V9.006a.185.185 0 00-.184-.186h-2.12a.185.185 0 00-.184.185v1.888c0 .102.082.185.185.185"/>
    </symbol>

    <!-- Kubernetes Icon -->
    <symbol id="icon-kubernetes" viewBox="0 0 24 24">
        <path fill="#326CE5" d="M12 2C6.477 2 2 6.477 2 12s4.477 10 10 10 10-4.477 10-10S17.523 2 12 2zm4.586 12.414c-.39.39-.902.586-1.414.586s-1.024-.195-1.414-.586L12 12.586l-1.758 1.758c-.39.39-.902.586-1.414.586s-1.024-.195-1.414-.586a2 2 0 0 1 0-2.828L9.172 9.758c.39-.39.902-.586 1.414-.586s1.024.195 1.414.586L12 9.758l1.758-1.758c.39-.39.902-.586 1.414-.586s1.024.195 1.414.586a2 2 0 0 1 0 2.828l-1.758 1.758 1.758 1.758a2 2 0 0 1 0 2.828z"/>
    </symbol>

    <!-- Jenkins Icon -->
    <symbol id="icon-jenkins" viewBox="0 0 24 24">
        <path fill="#D24939" d="M12,2C6.48,2,2,6.48,2,12c0,5.52,4.48,10,10,10s10-4.48,10-10C22,6.48,17.52,2,12,2z M14.64,17.23 c-0.41,0.41-1.08,0.41-1.49,0l-3.38-3.38C9.29,13.37,9,12.74,9,12.08V7c0-0.55,0.45-1,1-1s1,0.45,1,1v5.08c0,0.22,0.09,0.44,0.24,0.6 l3.38,3.38c0.41,0.41,0.41,1.08,0,1.49L14.64,17.23z"/>
    </symbol>
</svg>
