<svg xmlns="http://www.w3.org/2000/svg" fill="none" stroke="#1e40af" stroke-width="1" viewBox="0 0 24 24"><circle cx="12" cy="12" r="2.139"/><path d="M12,4.9c4.9,0,9,1.3,9,3.1s-4,3.1-9,3.1s-9-1.3-9-3.1S7.1,4.9,12,4.9z"/><path d="M12,13c4.9,0,9,1.3,9,3.1s-4,3.1-9,3.1s-9-1.3-9-3.1S7.1,13,12,13z"/><path d="M12,4.9c4.9,0,9,1.3,9,3.1s-4,3.1-9,3.1s-9-1.3-9-3.1S7.1,4.9,12,4.9z" transform="rotate(60 12 12)"/><path d="M12,13c4.9,0,9,1.3,9,3.1s-4,3.1-9,3.1s-9-1.3-9-3.1S7.1,13,12,13z" transform="rotate(60 12 12)"/></svg>